<!-- Adapted from an icon originally created by reshot.com. -->
<!-- This svg is not used on the site, but it does serve as a base for the favicon. -->
<svg width="186" height="162" viewBox="0 0 186 162" fill="none" xmlns="http://www.w3.org/2000/svg">
<path d="M180.25 161.159H5C2.239 161.159 0 158.92 0 156.159V5C0 2.239 2.239 0 5 0H180.25C183.011 0 185.25 2.239 185.25 5V156.159C185.25 158.921 183.011 161.159 180.25 161.159Z" fill="#FF3DAA"/>
<path d="M185.25 26.385V156.16C185.25 158.921 183.011 161.16 180.25 161.16H5C2.239 161.16 0 158.921 0 156.16V5C0 2.239 2.239 0 5 0H48.712L67.845 23.775C69.173 25.425 71.177 26.385 73.295 26.385H185.25Z" fill="#151515"/>
<path d="M185.25 26.385V156.16C185.25 158.921 183.011 161.16 180.25 161.16H15.172C13.101 161.16 11.422 159.481 11.422 157.41V3.75C11.422 1.679 13.101 0 15.172 0H48.712L67.845 23.775C69.173 25.425 71.177 26.385 73.295 26.385H185.25Z" fill="#353535"/>
<path d="M121.905 112.727C119.628 110.265 119.778 106.424 122.241 104.147L141.781 86.08L122.241 68.013C119.778 65.737 119.628 61.895 121.905 59.433C124.182 56.971 128.022 56.82 130.485 59.097L154.848 81.621C157.445 84.021 157.448 88.134 154.848 90.538L130.485 113.062C128.025 115.338 124.183 115.191 121.905 112.727Z" fill="#27FDF5"/>
<path d="M54.764 113.063L30.401 90.539C27.804 88.139 27.801 84.026 30.401 81.622L54.764 59.098C57.226 56.821 61.067 56.971 63.344 59.434C65.621 61.896 65.471 65.737 63.008 68.014L43.468 86.081L63.008 104.148C65.471 106.424 65.621 110.266 63.344 112.728C61.065 115.192 57.224 115.337 54.764 113.063Z" fill="#27FDF5"/>
<path d="M76.584 113.863C73.68 112.186 72.685 108.473 74.361 105.569L100.371 60.519C102.048 57.616 105.759 56.62 108.665 58.296C111.569 59.973 112.564 63.686 110.888 66.59L84.878 111.639C83.202 114.544 79.49 115.54 76.584 113.863Z" fill="#27FDF5"/>
<path d="M150.611 18.605C153.467 18.605 155.783 16.2894 155.783 13.433C155.783 10.5766 153.467 8.261 150.611 8.261C147.755 8.261 145.439 10.5766 145.439 13.433C145.439 16.2894 147.755 18.605 150.611 18.605Z" fill="#27FDF5"/>
<path d="M169.542 18.605C172.398 18.605 174.714 16.2894 174.714 13.433C174.714 10.5766 172.398 8.261 169.542 8.261C166.686 8.261 164.37 10.5766 164.37 13.433C164.37 16.2894 166.686 18.605 169.542 18.605Z" fill="#27FDF5"/>
<path d="M42.674 14.303C42.674 13.199 41.778 12.303 40.674 12.303H14.767C13.663 12.303 12.767 13.199 12.767 14.303C12.767 15.407 13.663 16.303 14.767 16.303H40.674C41.778 16.303 42.674 15.408 42.674 14.303Z" fill="#FF3DAA"/>
<path d="M151.964 20.519C155.919 20.519 159.137 17.302 159.137 13.347C159.137 9.392 155.919 6.175 151.964 6.175C148.009 6.175 144.792 9.392 144.792 13.347C144.792 17.302 148.009 20.519 151.964 20.519ZM151.964 10.175C153.714 10.175 155.137 11.598 155.137 13.347C155.137 15.096 153.714 16.519 151.964 16.519C150.215 16.519 148.792 15.096 148.792 13.347C148.792 11.598 150.215 10.175 151.964 10.175Z" fill="#455A64"/>
<path d="M169.542 20.605C173.497 20.605 176.715 17.388 176.715 13.433C176.715 9.478 173.497 6.261 169.542 6.261C165.587 6.261 162.37 9.478 162.37 13.433C162.37 17.388 165.587 20.605 169.542 20.605ZM169.542 10.261C171.292 10.261 172.715 11.684 172.715 13.433C172.715 15.182 171.292 16.605 169.542 16.605C167.793 16.605 166.37 15.182 166.37 13.433C166.37 11.684 167.793 10.261 169.542 10.261Z" fill="#455A64"/>
<path d="M156.185 80.163L131.822 57.64C130.238 56.175 128.171 55.411 126.026 55.5C121.57 55.675 118.102 59.423 118.276 63.881C118.361 66.036 119.279 68.028 120.863 69.491L138.814 86.09C119.677 103.784 118.45 103.883 118.276 108.299C117.995 115.514 126.589 119.379 131.821 114.542L156.184 92.018C159.636 88.827 159.637 83.355 156.185 80.163ZM153.47 89.08L129.107 111.605C127.459 113.126 124.888 113.039 123.354 111.38C121.826 109.729 121.925 107.155 123.579 105.626L143.119 87.559C143.529 87.181 143.762 86.648 143.762 86.091C143.762 85.534 143.53 85.001 143.119 84.623L123.579 66.556C119.626 62.902 125.171 56.936 129.107 60.578L153.47 83.101C155.208 84.707 155.221 87.462 153.47 89.08Z" fill="#455A64"/>
<path d="M66.932 63.882C67.212 56.694 58.63 52.792 53.386 57.64L29.023 80.163C25.571 83.354 25.571 88.825 29.023 92.017L53.385 114.541C58.658 119.416 67.209 115.442 66.931 108.298C66.758 103.907 65.636 103.882 46.393 86.089C65.53 68.396 66.758 68.298 66.932 63.882ZM42.09 84.622C41.234 85.412 41.234 86.769 42.09 87.559C63.436 107.296 62.845 106.199 62.935 108.456C63.074 112.06 58.763 114.066 56.101 111.605C29.647 87.147 30.432 88.545 30.432 86.091C30.432 83.637 29.595 85.083 56.102 60.577C58.728 58.146 63.076 60.074 62.935 63.726C62.845 65.989 63.426 64.894 42.09 84.622Z" fill="#455A64"/>
<path d="M109.644 56.575C105.79 54.35 100.843 55.678 98.619 59.53L72.609 104.58C70.378 108.444 71.699 113.375 75.563 115.606C79.417 117.83 84.365 116.504 86.59 112.651L112.6 67.601C114.824 63.747 113.498 58.801 109.644 56.575ZM109.135 65.602L83.126 110.651C81.313 113.787 76.599 113.155 75.666 109.67C75.051 107.372 73.859 110.415 102.082 61.531C103.205 59.588 105.698 58.918 107.645 60.04C109.589 61.162 110.257 63.657 109.135 65.602Z" fill="#455A64"/>
</svg>
